<svg width="113" height="18" viewBox="0 0 113 18" fill="none" xmlns="http://www.w3.org/2000/svg">
<path d="M15.2305 0.746094V6.25391H14.7734C14.4297 4.81641 13.7891 3.71484 12.8516 2.94922C11.9141 2.18359 10.8516 1.80078 9.66406 1.80078C8.67188 1.80078 7.76172 2.08594 6.93359 2.65625C6.10547 3.22656 5.5 3.97266 5.11719 4.89453C4.625 6.07422 4.37891 7.38672 4.37891 8.83203C4.37891 10.2539 4.55859 11.5508 4.91797 12.7227C5.27734 13.8867 5.83984 14.7695 6.60547 15.3711C7.37109 15.9648 8.36328 16.2617 9.58203 16.2617C10.582 16.2617 11.4961 16.043 12.3242 15.6055C13.1602 15.168 14.0391 14.4141 14.9609 13.3438V14.7148C14.0703 15.6445 13.1406 16.3203 12.1719 16.7422C11.2109 17.1562 10.0859 17.3633 8.79688 17.3633C7.10156 17.3633 5.59375 17.0234 4.27344 16.3438C2.96094 15.6641 1.94531 14.6875 1.22656 13.4141C0.515625 12.1406 0.160156 10.7852 0.160156 9.34766C0.160156 7.83203 0.554688 6.39453 1.34375 5.03516C2.14062 3.67578 3.21094 2.62109 4.55469 1.87109C5.90625 1.12109 7.33984 0.746094 8.85547 0.746094C9.97266 0.746094 11.1523 0.988281 12.3945 1.47266C13.1133 1.75391 13.5703 1.89453 13.7656 1.89453C14.0156 1.89453 14.2305 1.80469 14.4102 1.625C14.5977 1.4375 14.7188 1.14453 14.7734 0.746094H15.2305ZM33.6406 1.10938V1.54297C33.0625 1.63672 32.5469 1.94531 32.0938 2.46875C31.7656 2.85937 31.2773 3.77734 30.6289 5.22266L25.1562 17.3633H24.7695L19.3203 4.73047C18.6641 3.20703 18.2227 2.3125 17.9961 2.04688C17.7773 1.78125 17.3594 1.61328 16.7422 1.54297V1.10938H24.3594V1.54297H24.1016C23.4141 1.54297 22.9453 1.62891 22.6953 1.80078C22.5156 1.91797 22.4258 2.08984 22.4258 2.31641C22.4258 2.45703 22.457 2.625 22.5195 2.82031C22.582 3.00781 22.793 3.51953 23.1523 4.35547L26.5391 12.2656L29.6797 5.22266C30.0547 4.37109 30.2852 3.80078 30.3711 3.51172C30.457 3.22266 30.5 2.97656 30.5 2.77344C30.5 2.53906 30.4375 2.33203 30.3125 2.15234C30.1875 1.97266 30.0039 1.83594 29.7617 1.74219C29.4258 1.60938 28.9805 1.54297 28.4258 1.54297V1.10938H33.6406ZM50.8906 11.5859L55.2031 1.10938H61.6719V1.54297H61.1562C60.6875 1.54297 60.3125 1.625 60.0312 1.78906C59.8359 1.89844 59.6797 2.08203 59.5625 2.33984C59.4766 2.52734 59.4336 3.01563 59.4336 3.80469V14.2812C59.4336 15.0938 59.4766 15.6016 59.5625 15.8047C59.6484 16.0078 59.8242 16.1875 60.0898 16.3438C60.3555 16.4922 60.7109 16.5664 61.1562 16.5664H61.6719V17H53.375V16.5664H53.8906C54.3594 16.5664 54.7344 16.4844 55.0156 16.3203C55.2109 16.2109 55.3672 16.0234 55.4844 15.7578C55.5703 15.5703 55.6133 15.0781 55.6133 14.2812V2.50391L49.5195 17H49.2383L43.0508 2.60938V13.8008C43.0508 14.582 43.0703 15.0625 43.1094 15.2422C43.2109 15.6328 43.4297 15.9531 43.7656 16.2031C44.1094 16.4453 44.6445 16.5664 45.3711 16.5664V17H39.9336V16.5664H40.0977C40.4492 16.5742 40.7773 16.5195 41.082 16.4023C41.3867 16.2773 41.6172 16.1133 41.7734 15.9102C41.9297 15.707 42.0508 15.4219 42.1367 15.0547C42.1523 14.9688 42.1602 14.5703 42.1602 13.8594V3.80469C42.1602 3 42.1172 2.5 42.0312 2.30469C41.9453 2.10156 41.7695 1.92578 41.5039 1.77734C41.2383 1.62109 40.8828 1.54297 40.4375 1.54297H39.9336V1.10938H46.4258L50.8906 11.5859ZM68.9727 15.3828C67.6367 16.5625 66.4375 17.1523 65.375 17.1523C64.75 17.1523 64.2305 16.9492 63.8164 16.543C63.4023 16.1289 63.1953 15.6133 63.1953 14.9961C63.1953 14.1602 63.5547 13.4102 64.2734 12.7461C64.9922 12.0742 66.5586 11.1836 68.9727 10.0742V8.97266C68.9727 8.14453 68.9258 7.625 68.832 7.41406C68.7461 7.19531 68.5781 7.00781 68.3281 6.85156C68.0781 6.6875 67.7969 6.60547 67.4844 6.60547C66.9766 6.60547 66.5586 6.71875 66.2305 6.94531C66.0273 7.08594 65.9258 7.25 65.9258 7.4375C65.9258 7.60156 66.0352 7.80469 66.2539 8.04688C66.5508 8.38281 66.6992 8.70703 66.6992 9.01953C66.6992 9.40234 66.5547 9.73047 66.2656 10.0039C65.9844 10.2695 65.6133 10.4023 65.1523 10.4023C64.6602 10.4023 64.2461 10.2539 63.9102 9.95703C63.582 9.66016 63.418 9.3125 63.418 8.91406C63.418 8.35156 63.6406 7.81641 64.0859 7.30859C64.5312 6.79297 65.1523 6.39844 65.9492 6.125C66.7461 5.85156 67.5742 5.71484 68.4336 5.71484C69.4727 5.71484 70.293 5.9375 70.8945 6.38281C71.5039 6.82031 71.8984 7.29688 72.0781 7.8125C72.1875 8.14062 72.2422 8.89453 72.2422 10.0742V14.3281C72.2422 14.8281 72.2617 15.1445 72.3008 15.2773C72.3398 15.4023 72.3984 15.4961 72.4766 15.5586C72.5547 15.6211 72.6445 15.6523 72.7461 15.6523C72.9492 15.6523 73.1562 15.5078 73.3672 15.2188L73.7188 15.5C73.3281 16.0781 72.9219 16.5 72.5 16.7656C72.0859 17.0234 71.6133 17.1523 71.082 17.1523C70.457 17.1523 69.9688 17.0078 69.6172 16.7188C69.2656 16.4219 69.0508 15.9766 68.9727 15.3828ZM68.9727 14.5273V10.8594C68.0273 11.4141 67.3242 12.0078 66.8633 12.6406C66.5586 13.0625 66.4062 13.4883 66.4062 13.918C66.4062 14.2773 66.5352 14.5938 66.793 14.8672C66.9883 15.0781 67.2617 15.1836 67.6133 15.1836C68.0039 15.1836 68.457 14.9648 68.9727 14.5273ZM81.8516 5.73828L82.0273 9.47656H81.6289C81.1523 8.36719 80.6562 7.60938 80.1406 7.20312C79.6328 6.79688 79.125 6.59375 78.6172 6.59375C78.2969 6.59375 78.0234 6.70312 77.7969 6.92188C77.5703 7.13281 77.457 7.37891 77.457 7.66016C77.457 7.87109 77.5352 8.07422 77.6914 8.26953C77.9414 8.58984 78.6406 9.14062 79.7891 9.92188C80.9375 10.6953 81.6914 11.3555 82.0508 11.9023C82.418 12.4414 82.6016 13.0469 82.6016 13.7188C82.6016 14.3281 82.4492 14.9258 82.1445 15.5117C81.8398 16.0977 81.4102 16.5469 80.8555 16.8594C80.3008 17.1719 79.6875 17.3281 79.0156 17.3281C78.4922 17.3281 77.793 17.1641 76.918 16.8359C76.6836 16.75 76.5234 16.707 76.4375 16.707C76.1797 16.707 75.9648 16.9023 75.793 17.293H75.4062L75.2188 13.3555H75.6172C75.9688 14.3867 76.4492 15.1602 77.0586 15.6758C77.6758 16.1914 78.2578 16.4492 78.8047 16.4492C79.1797 16.4492 79.4844 16.3359 79.7188 16.1094C79.9609 15.875 80.082 15.5938 80.082 15.2656C80.082 14.8906 79.9648 14.5664 79.7305 14.293C79.4961 14.0195 78.9727 13.6055 78.1602 13.0508C76.9648 12.2227 76.1914 11.5898 75.8398 11.1523C75.3242 10.5117 75.0664 9.80469 75.0664 9.03125C75.0664 8.1875 75.3555 7.42578 75.9336 6.74609C76.5195 6.05859 77.3633 5.71484 78.4648 5.71484C79.0586 5.71484 79.6328 5.85938 80.1875 6.14844C80.3984 6.26562 80.5703 6.32422 80.7031 6.32422C80.8438 6.32422 80.957 6.29688 81.043 6.24219C81.1289 6.17969 81.2656 6.01172 81.4531 5.73828H81.8516ZM88.625 2.03516V6.04297H91.2266V7.20312H88.625V13.9648C88.625 14.5977 88.6523 15.0078 88.707 15.1953C88.7695 15.375 88.875 15.5234 89.0234 15.6406C89.1719 15.75 89.3086 15.8047 89.4336 15.8047C89.9414 15.8047 90.4219 15.418 90.875 14.6445L91.2266 14.9023C90.5938 16.4023 89.5664 17.1523 88.1445 17.1523C87.4492 17.1523 86.8594 16.9609 86.375 16.5781C85.8984 16.1875 85.5938 15.7539 85.4609 15.2773C85.3828 15.0117 85.3438 14.293 85.3438 13.1211V7.20312H83.9141V6.79297C84.8984 6.09766 85.7344 5.36719 86.4219 4.60156C87.1172 3.83594 87.7227 2.98047 88.2383 2.03516H88.625ZM101.551 11.1289H95.5391C95.6094 12.582 95.9961 13.7305 96.6992 14.5742C97.2383 15.2227 97.8867 15.5469 98.6445 15.5469C99.1133 15.5469 99.5391 15.418 99.9219 15.1602C100.305 14.8945 100.715 14.4219 101.152 13.7422L101.551 14C100.957 15.2109 100.301 16.0703 99.582 16.5781C98.8633 17.0781 98.0312 17.3281 97.0859 17.3281C95.4609 17.3281 94.2305 16.7031 93.3945 15.4531C92.7227 14.4453 92.3867 13.1953 92.3867 11.7031C92.3867 9.875 92.8789 8.42188 93.8633 7.34375C94.8555 6.25781 96.0156 5.71484 97.3438 5.71484C98.4531 5.71484 99.4141 6.17188 100.227 7.08594C101.047 7.99219 101.488 9.33984 101.551 11.1289ZM98.668 10.3438C98.668 9.08594 98.5977 8.22266 98.457 7.75391C98.3242 7.28516 98.1133 6.92969 97.8242 6.6875C97.6602 6.54688 97.4414 6.47656 97.168 6.47656C96.7617 6.47656 96.4297 6.67578 96.1719 7.07422C95.7109 7.76953 95.4805 8.72266 95.4805 9.93359V10.3438H98.668ZM107.48 6.04297V8.52734C108.207 7.39453 108.844 6.64453 109.391 6.27734C109.938 5.90234 110.465 5.71484 110.973 5.71484C111.41 5.71484 111.758 5.85156 112.016 6.125C112.281 6.39062 112.414 6.76953 112.414 7.26172C112.414 7.78516 112.285 8.19141 112.027 8.48047C111.777 8.76953 111.473 8.91406 111.113 8.91406C110.699 8.91406 110.34 8.78125 110.035 8.51562C109.73 8.25 109.551 8.10156 109.496 8.07031C109.418 8.02344 109.328 8 109.227 8C109 8 108.785 8.08594 108.582 8.25781C108.262 8.52344 108.02 8.90234 107.855 9.39453C107.605 10.1523 107.48 10.9883 107.48 11.9023V14.4219L107.492 15.0781C107.492 15.5234 107.52 15.8086 107.574 15.9336C107.668 16.1445 107.805 16.3008 107.984 16.4023C108.172 16.4961 108.484 16.5547 108.922 16.5781V17H103.004V16.5781C103.48 16.5391 103.801 16.4102 103.965 16.1914C104.137 15.9648 104.223 15.375 104.223 14.4219V8.36328C104.223 7.73828 104.191 7.33984 104.129 7.16797C104.051 6.94922 103.938 6.78906 103.789 6.6875C103.641 6.58594 103.379 6.51562 103.004 6.47656V6.04297H107.48Z" fill="white"/>
</svg>
